<?xml version="1.0" encoding="UTF-8"?>
<!DOCTYPE svg PUBLIC "-//W3C//DTD SVG 1.1//EN" "http://www.w3.org/Graphics/SVG/1.1/DTD/svg11.dtd">
<svg xmlns="http://www.w3.org/2000/svg" version="1.1" width="52px" height="58px" style="shape-rendering:geometricPrecision; text-rendering:geometricPrecision; image-rendering:optimizeQuality; fill-rule:evenodd; clip-rule:evenodd" xmlns:xlink="http://www.w3.org/1999/xlink">
<g><path style="opacity:0.451" fill="#b0acab" d="M 7.5,-0.5 C 7.83333,-0.5 8.16667,-0.5 8.5,-0.5C 8.5,0.166667 8.5,0.833333 8.5,1.5C 7.5,1.5 6.5,1.5 5.5,1.5C 6.16667,0.833333 6.83333,0.166667 7.5,-0.5 Z"/></g>
<g><path style="opacity:0.271" fill="#b3b1b0" d="M 21.5,-0.5 C 21.8333,-0.5 22.1667,-0.5 22.5,-0.5C 23.8333,0.166667 25.1667,0.833333 26.5,1.5C 24.2188,1.92271 22.5521,1.25605 21.5,-0.5 Z"/></g>
<g><path style="opacity:1" fill="#2f2420" d="M 8.5,-0.5 C 12.8333,-0.5 17.1667,-0.5 21.5,-0.5C 22.5521,1.25605 24.2188,1.92271 26.5,1.5C 26.5,2.16667 26.5,2.83333 26.5,3.5C 26.1667,3.5 25.8333,3.5 25.5,3.5C 24.8333,3.5 24.1667,3.5 23.5,3.5C 22.609,2.89022 21.609,2.55688 20.5,2.5C 19.4324,1.56552 18.099,1.23219 16.5,1.5C 14.8333,1.5 13.1667,1.5 11.5,1.5C 10.5,1.5 9.5,1.5 8.5,1.5C 8.5,0.833333 8.5,0.166667 8.5,-0.5 Z"/></g>
<g><path style="opacity:1" fill="#805737" d="M 11.5,1.5 C 13.1667,1.5 14.8333,1.5 16.5,1.5C 16.5,2.5 16.5,3.5 16.5,4.5C 14.8333,4.5 13.1667,4.5 11.5,4.5C 11.5,3.5 11.5,2.5 11.5,1.5 Z"/></g>
<g><path style="opacity:0.518" fill="#a09e9d" d="M 26.5,1.5 C 28.7496,2.13022 30.7496,3.13022 32.5,4.5C 30.5,4.16667 28.5,3.83333 26.5,3.5C 26.5,2.83333 26.5,2.16667 26.5,1.5 Z"/></g>
<g><path style="opacity:0.91" fill="#73706b" d="M 5.5,1.5 C 5.5,3.5 4.5,4.5 2.5,4.5C 3.16667,3.16667 4.16667,2.16667 5.5,1.5 Z"/></g>
<g><path style="opacity:1" fill="#8c1f2a" d="M 8.5,1.5 C 9.5,1.5 10.5,1.5 11.5,1.5C 11.5,2.5 11.5,3.5 11.5,4.5C 10.5,4.5 9.5,4.5 8.5,4.5C 8.5,3.5 8.5,2.5 8.5,1.5 Z"/></g>
<g><path style="opacity:1" fill="#8d282d" d="M 16.5,1.5 C 18.099,1.23219 19.4324,1.56552 20.5,2.5C 20.7678,4.09903 20.4345,5.43236 19.5,6.5C 18.8333,6.5 18.1667,6.5 17.5,6.5C 17.1667,6.5 16.8333,6.5 16.5,6.5C 16.5,5.83333 16.5,5.16667 16.5,4.5C 16.5,3.5 16.5,2.5 16.5,1.5 Z"/></g>
<g><path style="opacity:1" fill="#1b140f" d="M 25.5,3.5 C 25.8333,3.5 26.1667,3.5 26.5,3.5C 28.5,3.83333 30.5,4.16667 32.5,4.5C 32.5569,5.60895 32.8902,6.60895 33.5,7.5C 31.4862,7.60849 29.8195,6.94183 28.5,5.5C 28.1667,5.5 27.8333,5.5 27.5,5.5C 27.1667,5.5 26.8333,5.5 26.5,5.5C 26.1667,4.83333 25.8333,4.16667 25.5,3.5 Z"/></g>
<g><path style="opacity:1" fill="#251b10" d="M 5.5,1.5 C 6.5,1.5 7.5,1.5 8.5,1.5C 8.5,2.5 8.5,3.5 8.5,4.5C 7.83333,4.5 7.16667,4.5 6.5,4.5C 5.77765,5.55114 4.77765,6.21781 3.5,6.5C 3.5,5.83333 3.16667,5.5 2.5,5.5C 2.5,5.16667 2.5,4.83333 2.5,4.5C 4.5,4.5 5.5,3.5 5.5,1.5 Z"/></g>
<g><path style="opacity:1" fill="#2c170c" d="M 8.5,4.5 C 9.5,4.5 10.5,4.5 11.5,4.5C 13.1667,4.5 14.8333,4.5 16.5,4.5C 16.5,5.16667 16.5,5.83333 16.5,6.5C 13.7196,5.92159 11.0529,5.25492 8.5,4.5 Z"/></g>
<g><path style="opacity:1" fill="#684827" d="M 20.5,2.5 C 21.609,2.55688 22.609,2.89022 23.5,3.5C 23.5,4.83333 23.5,6.16667 23.5,7.5C 22.5,7.5 21.5,7.5 20.5,7.5C 19.8333,7.5 19.5,7.16667 19.5,6.5C 20.4345,5.43236 20.7678,4.09903 20.5,2.5 Z"/></g>
<g><path style="opacity:0.549" fill="#81807c" d="M 2.5,4.5 C 2.5,4.83333 2.5,5.16667 2.5,5.5C 2.79472,7.73535 2.46138,9.73535 1.5,11.5C 1.16667,11.5 0.833333,11.5 0.5,11.5C 1.06543,9.04791 1.7321,6.71458 2.5,4.5 Z"/></g>
<g><path style="opacity:1" fill="#111109" d="M 6.5,4.5 C 7.16667,4.5 7.83333,4.5 8.5,4.5C 11.0529,5.25492 13.7196,5.92159 16.5,6.5C 16.8333,6.5 17.1667,6.5 17.5,6.5C 17.1583,7.33825 16.4916,7.67158 15.5,7.5C 13.2362,6.78138 10.9029,6.44805 8.5,6.5C 7.16667,6.5 6.5,5.83333 6.5,4.5 Z"/></g>
<g><path style="opacity:1" fill="#070501" d="M 2.5,5.5 C 3.16667,5.5 3.5,5.83333 3.5,6.5C 3.5,7.83333 3.5,9.16667 3.5,10.5C 3.5,11.1667 3.5,11.8333 3.5,12.5C 2.07546,14.0311 1.40879,13.6977 1.5,11.5C 2.46138,9.73535 2.79472,7.73535 2.5,5.5 Z"/></g>
<g><path style="opacity:1" fill="#0f150d" d="M 6.5,4.5 C 6.5,5.83333 7.16667,6.5 8.5,6.5C 8.16667,7.16667 7.83333,7.83333 7.5,8.5C 6.16667,8.5 5.5,9.16667 5.5,10.5C 4.83333,10.5 4.16667,10.5 3.5,10.5C 3.5,9.16667 3.5,7.83333 3.5,6.5C 4.77765,6.21781 5.77765,5.55114 6.5,4.5 Z"/></g>
<g><path style="opacity:1" fill="#422810" d="M 23.5,3.5 C 24.1667,3.5 24.8333,3.5 25.5,3.5C 25.8333,4.16667 26.1667,4.83333 26.5,5.5C 24.8235,6.18342 24.1568,7.51676 24.5,9.5C 24.5,9.83333 24.5,10.1667 24.5,10.5C 24.1667,10.5 23.8333,10.5 23.5,10.5C 22.9002,9.10008 21.9002,8.10008 20.5,7.5C 21.5,7.5 22.5,7.5 23.5,7.5C 23.5,6.16667 23.5,4.83333 23.5,3.5 Z"/></g>
<g><path style="opacity:1" fill="#58391c" d="M 26.5,5.5 C 26.8333,5.5 27.1667,5.5 27.5,5.5C 27.4456,7.63195 26.4456,8.96528 24.5,9.5C 24.1568,7.51676 24.8235,6.18342 26.5,5.5 Z"/></g>
<g><path style="opacity:1" fill="#2f3229" d="M 8.5,6.5 C 10.9029,6.44805 13.2362,6.78138 15.5,7.5C 15.5,7.83333 15.5,8.16667 15.5,8.5C 12.8333,8.5 10.1667,8.5 7.5,8.5C 7.83333,7.83333 8.16667,7.16667 8.5,6.5 Z"/></g>
<g><path style="opacity:1" fill="#171108" d="M 17.5,6.5 C 18.1667,6.5 18.8333,6.5 19.5,6.5C 19.5,7.16667 19.8333,7.5 20.5,7.5C 21.9002,8.10008 22.9002,9.10008 23.5,10.5C 22.3478,9.37505 21.3478,9.37505 20.5,10.5C 19.8333,10.1667 19.1667,9.83333 18.5,9.5C 17.8333,9.16667 17.1667,8.83333 16.5,8.5C 16.1667,8.5 15.8333,8.5 15.5,8.5C 15.5,8.16667 15.5,7.83333 15.5,7.5C 16.4916,7.67158 17.1583,7.33825 17.5,6.5 Z"/></g>
<g><path style="opacity:1" fill="#3a3c31" d="M 7.5,8.5 C 10.1667,8.5 12.8333,8.5 15.5,8.5C 15.8333,8.5 16.1667,8.5 16.5,8.5C 16.5,9.16667 16.5,9.83333 16.5,10.5C 12.9925,9.76268 9.32579,9.76268 5.5,10.5C 5.5,9.16667 6.16667,8.5 7.5,8.5 Z"/></g>
<g><path style="opacity:1" fill="#452b11" d="M 27.5,5.5 C 27.8333,5.5 28.1667,5.5 28.5,5.5C 28.2322,7.09903 28.5655,8.43236 29.5,9.5C 28.0813,10.4511 26.4147,10.7845 24.5,10.5C 24.5,10.1667 24.5,9.83333 24.5,9.5C 26.4456,8.96528 27.4456,7.63195 27.5,5.5 Z"/></g>
<g><path style="opacity:1" fill="#2f1b08" d="M 28.5,5.5 C 29.8195,6.94183 31.4862,7.60849 33.5,7.5C 34.1667,8.16667 34.8333,8.83333 35.5,9.5C 34.1667,9.5 33.5,10.1667 33.5,11.5C 33.1667,11.5 32.8333,11.5 32.5,11.5C 31.5,10.8333 30.5,10.1667 29.5,9.5C 28.5655,8.43236 28.2322,7.09903 28.5,5.5 Z"/></g>
<g><path style="opacity:1" fill="#0d0c05" d="M 23.5,10.5 C 23.5,10.8333 23.5,11.1667 23.5,11.5C 22.8843,12.2022 22.8843,13.2022 23.5,14.5C 23.1667,14.5 22.8333,14.5 22.5,14.5C 22.5,13.8333 22.1667,13.5 21.5,13.5C 21.4431,12.391 21.1098,11.391 20.5,10.5C 21.3478,9.37505 22.3478,9.37505 23.5,10.5 Z"/></g>
<g><path style="opacity:1" fill="#696058" d="M 32.5,4.5 C 34.5,5.83333 36.1667,7.5 37.5,9.5C 36.6043,10.5063 35.9377,10.5063 35.5,9.5C 34.8333,8.83333 34.1667,8.16667 33.5,7.5C 32.8902,6.60895 32.5569,5.60895 32.5,4.5 Z"/></g>
<g><path style="opacity:1" fill="#474a3f" d="M 16.5,10.5 C 16.5,11.1667 16.5,11.8333 16.5,12.5C 15.6618,12.8417 15.3284,13.5084 15.5,14.5C 15.1667,14.5 14.8333,14.5 14.5,14.5C 14.0269,13.0937 13.0269,12.427 11.5,12.5C 9.16667,12.5 6.83333,12.5 4.5,12.5C 4.83333,11.8333 5.16667,11.1667 5.5,10.5C 9.32579,9.76268 12.9925,9.76268 16.5,10.5 Z"/></g>
<g><path style="opacity:1" fill="#242c24" d="M 18.5,9.5 C 19.1667,9.83333 19.8333,10.1667 20.5,10.5C 21.1098,11.391 21.4431,12.391 21.5,13.5C 17.8141,13.87 16.8141,12.5367 18.5,9.5 Z"/></g>
<g><path style="opacity:1" fill="#37210c" d="M 29.5,9.5 C 30.5,10.1667 31.5,10.8333 32.5,11.5C 33.2341,12.7079 33.5674,14.0413 33.5,15.5C 32.1667,15.1667 30.8333,14.8333 29.5,14.5C 29.7373,13.209 29.404,12.209 28.5,11.5C 26.8333,11.5 25.1667,11.5 23.5,11.5C 23.5,11.1667 23.5,10.8333 23.5,10.5C 23.8333,10.5 24.1667,10.5 24.5,10.5C 26.4147,10.7845 28.0813,10.4511 29.5,9.5 Z"/></g>
<g><path style="opacity:0.235" fill="#aeacab" d="M -0.5,11.5 C -0.166667,11.5 0.166667,11.5 0.5,11.5C 0.180544,16.3633 0.513877,21.03 1.5,25.5C 2.16667,26.5 2.83333,27.5 3.5,28.5C 3.5,28.8333 3.5,29.1667 3.5,29.5C 3.5,30.1667 3.5,30.8333 3.5,31.5C 2.5149,29.4939 1.18157,27.8273 -0.5,26.5C -0.5,21.5 -0.5,16.5 -0.5,11.5 Z"/></g>
<g><path style="opacity:1" fill="#1d1c15" d="M 0.5,11.5 C 0.833333,11.5 1.16667,11.5 1.5,11.5C 1.40879,13.6977 2.07546,14.0311 3.5,12.5C 2.962,14.1172 2.62867,15.7839 2.5,17.5C 1.52693,19.9479 1.1936,22.6146 1.5,25.5C 0.513877,21.03 0.180544,16.3633 0.5,11.5 Z"/></g>
<g><path style="opacity:1" fill="#0a0903" d="M 23.5,11.5 C 25.1667,11.5 26.8333,11.5 28.5,11.5C 28.1583,12.3382 27.4916,12.6716 26.5,12.5C 24.6122,14.9878 23.9455,17.9878 24.5,21.5C 24.5,22.1667 24.1667,22.5 23.5,22.5C 23.5,19.8333 23.5,17.1667 23.5,14.5C 22.8843,13.2022 22.8843,12.2022 23.5,11.5 Z"/></g>
<g><path style="opacity:1" fill="#392210" d="M 35.5,9.5 C 35.9377,10.5063 36.6043,10.5063 37.5,9.5C 37.6596,11.153 38.3263,12.4863 39.5,13.5C 39.5,14.1667 39.5,14.8333 39.5,15.5C 37.9731,15.573 36.9731,14.9063 36.5,13.5C 35.7095,12.5987 34.7095,11.9321 33.5,11.5C 33.5,10.1667 34.1667,9.5 35.5,9.5 Z"/></g>
<g><path style="opacity:1" fill="#575647" d="M 11.5,12.5 C 13.0269,12.427 14.0269,13.0937 14.5,14.5C 14.5,15.1667 14.1667,15.5 13.5,15.5C 12.391,15.4431 11.391,15.1098 10.5,14.5C 10.8333,13.8333 11.1667,13.1667 11.5,12.5 Z"/></g>
<g><path style="opacity:1" fill="#201506" d="M 28.5,11.5 C 29.404,12.209 29.7373,13.209 29.5,14.5C 28.6618,14.8417 28.3284,15.5084 28.5,16.5C 27.8333,15.5 27.1667,14.5 26.5,13.5C 26.5,13.1667 26.5,12.8333 26.5,12.5C 27.4916,12.6716 28.1583,12.3382 28.5,11.5 Z"/></g>
<g><path style="opacity:1" fill="#3b3f34" d="M 3.5,10.5 C 4.16667,10.5 4.83333,10.5 5.5,10.5C 5.16667,11.1667 4.83333,11.8333 4.5,12.5C 4.5,13.8333 5.16667,14.5 6.5,14.5C 6.5,14.8333 6.5,15.1667 6.5,15.5C 5.39514,16.6005 4.06181,17.2671 2.5,17.5C 2.62867,15.7839 2.962,14.1172 3.5,12.5C 3.5,11.8333 3.5,11.1667 3.5,10.5 Z"/></g>
<g><path style="opacity:1" fill="#5d5c4b" d="M 4.5,12.5 C 6.83333,12.5 9.16667,12.5 11.5,12.5C 11.1667,13.1667 10.8333,13.8333 10.5,14.5C 9.16667,14.5 7.83333,14.5 6.5,14.5C 5.16667,14.5 4.5,13.8333 4.5,12.5 Z"/></g>
<g><path style="opacity:1" fill="#2f342b" d="M 16.5,8.5 C 17.1667,8.83333 17.8333,9.16667 18.5,9.5C 16.8141,12.5367 17.8141,13.87 21.5,13.5C 21.5,13.8333 21.5,14.1667 21.5,14.5C 18.7742,16.3011 17.1076,15.6344 16.5,12.5C 16.5,11.8333 16.5,11.1667 16.5,10.5C 16.5,9.83333 16.5,9.16667 16.5,8.5 Z"/></g>
<g><path style="opacity:1" fill="#261707" d="M 32.5,11.5 C 32.8333,11.5 33.1667,11.5 33.5,11.5C 34.7095,11.9321 35.7095,12.5987 36.5,13.5C 35.7611,13.369 35.0944,13.5357 34.5,14C 35.7101,15.0391 36.7101,16.2058 37.5,17.5C 36.391,17.4431 35.391,17.1098 34.5,16.5C 34.5,15.8333 34.1667,15.5 33.5,15.5C 33.5674,14.0413 33.2341,12.7079 32.5,11.5 Z"/></g>
<g><path style="opacity:1" fill="#161513" d="M 39.5,13.5 C 40.1667,14.8333 40.8333,16.1667 41.5,17.5C 41.8333,17.5 42.1667,17.5 42.5,17.5C 42.5,17.8333 42.5,18.1667 42.5,18.5C 41.5,18.5 40.5,18.5 39.5,18.5C 38.1667,17.5 38.1667,16.5 39.5,15.5C 39.5,14.8333 39.5,14.1667 39.5,13.5 Z"/></g>
<g><path style="opacity:0.62" fill="#6f6b68" d="M 37.5,9.5 C 40.8931,11.073 42.2264,13.7396 41.5,17.5C 40.8333,16.1667 40.1667,14.8333 39.5,13.5C 38.3263,12.4863 37.6596,11.153 37.5,9.5 Z"/></g>
<g><path style="opacity:1" fill="#555243" d="M 14.5,14.5 C 14.8333,14.5 15.1667,14.5 15.5,14.5C 15.8333,15.5 16.5,16.1667 17.5,16.5C 16.8333,17.1667 16.1667,17.8333 15.5,18.5C 14.8333,18.1667 14.1667,17.8333 13.5,17.5C 13.5,16.8333 13.5,16.1667 13.5,15.5C 14.1667,15.5 14.5,15.1667 14.5,14.5 Z"/></g>
<g><path style="opacity:1" fill="#4b333e" d="M 6.5,14.5 C 7.83333,14.5 9.16667,14.5 10.5,14.5C 11.391,15.1098 12.391,15.4431 13.5,15.5C 13.5,16.1667 13.5,16.8333 13.5,17.5C 12.8333,17.5 12.1667,17.5 11.5,17.5C 10.1667,17.5 8.83333,17.5 7.5,17.5C 7.16667,17.5 6.83333,17.5 6.5,17.5C 6.5,16.8333 6.5,16.1667 6.5,15.5C 6.5,15.1667 6.5,14.8333 6.5,14.5 Z"/></g>
<g><path style="opacity:1" fill="#414338" d="M 16.5,12.5 C 17.1076,15.6344 18.7742,16.3011 21.5,14.5C 21.1249,16.6976 20.4582,18.6976 19.5,20.5C 19.8432,18.5168 19.1765,17.1834 17.5,16.5C 16.5,16.1667 15.8333,15.5 15.5,14.5C 15.3284,13.5084 15.6618,12.8417 16.5,12.5 Z"/></g>
<g><path style="opacity:1" fill="#192019" d="M 22.5,14.5 C 22.8333,14.5 23.1667,14.5 23.5,14.5C 23.5,17.1667 23.5,19.8333 23.5,22.5C 23.5,22.8333 23.5,23.1667 23.5,23.5C 23.5,23.8333 23.5,24.1667 23.5,24.5C 22.8444,23.7222 22.0111,23.0556 21,22.5C 20.2352,22.5699 19.7352,22.9033 19.5,23.5C 18.8333,23.5 18.5,23.1667 18.5,22.5C 21.892,21.0328 23.2253,18.3661 22.5,14.5 Z"/></g>
<g><path style="opacity:1" fill="#504c3d" d="M 17.5,16.5 C 19.1765,17.1834 19.8432,18.5168 19.5,20.5C 17.7973,19.3398 17.1307,20.0065 17.5,22.5C 16.8333,22.1667 16.1667,21.8333 15.5,21.5C 15.5,20.5 15.5,19.5 15.5,18.5C 16.1667,17.8333 16.8333,17.1667 17.5,16.5 Z"/></g>
<g><path style="opacity:1" fill="#2c332b" d="M 21.5,13.5 C 22.1667,13.5 22.5,13.8333 22.5,14.5C 23.2253,18.3661 21.892,21.0328 18.5,22.5C 18.1667,22.5 17.8333,22.5 17.5,22.5C 17.1307,20.0065 17.7973,19.3398 19.5,20.5C 20.4582,18.6976 21.1249,16.6976 21.5,14.5C 21.5,14.1667 21.5,13.8333 21.5,13.5 Z"/></g>
<g><path style="opacity:1" fill="#423623" d="M 26.5,12.5 C 26.5,12.8333 26.5,13.1667 26.5,13.5C 25.5386,15.2646 25.2053,17.2646 25.5,19.5C 25.5,20.1667 25.5,20.8333 25.5,21.5C 25.1667,21.5 24.8333,21.5 24.5,21.5C 23.9455,17.9878 24.6122,14.9878 26.5,12.5 Z"/></g>
<g><path style="opacity:1" fill="#100903" d="M 29.5,14.5 C 30.8333,14.8333 32.1667,15.1667 33.5,15.5C 34.1667,15.5 34.5,15.8333 34.5,16.5C 33.209,16.2627 32.209,16.596 31.5,17.5C 30.391,17.4431 29.391,17.1098 28.5,16.5C 28.3284,15.5084 28.6618,14.8417 29.5,14.5 Z"/></g>
<g><path style="opacity:1" fill="#150b01" d="M 36.5,13.5 C 36.9731,14.9063 37.9731,15.573 39.5,15.5C 38.1667,16.5 38.1667,17.5 39.5,18.5C 39.5,18.8333 39.5,19.1667 39.5,19.5C 38.8333,19.1667 38.1667,18.8333 37.5,18.5C 37.5,18.1667 37.5,17.8333 37.5,17.5C 36.7101,16.2058 35.7101,15.0391 34.5,14C 35.0944,13.5357 35.7611,13.369 36.5,13.5 Z"/></g>
<g><path style="opacity:1" fill="#15120b" d="M 6.5,15.5 C 6.5,16.1667 6.5,16.8333 6.5,17.5C 6.5,18.1667 6.5,18.8333 6.5,19.5C 5.00478,19.0113 3.67145,18.3446 2.5,17.5C 4.06181,17.2671 5.39514,16.6005 6.5,15.5 Z"/></g>
<g><path style="opacity:1" fill="#865d3a" d="M 11.5,17.5 C 12.1667,17.5 12.8333,17.5 13.5,17.5C 14.1667,17.8333 14.8333,18.1667 15.5,18.5C 15.5,19.5 15.5,20.5 15.5,21.5C 14.8333,21.5 14.5,21.8333 14.5,22.5C 14.1667,22.5 13.8333,22.5 13.5,22.5C 12.032,21.2209 11.3653,19.5542 11.5,17.5 Z"/></g>
<g><path style="opacity:1" fill="#4c3a23" d="M 26.5,13.5 C 27.1667,14.5 27.8333,15.5 28.5,16.5C 28.5,17.5 28.5,18.5 28.5,19.5C 27.5,19.5 26.5,19.5 25.5,19.5C 25.2053,17.2646 25.5386,15.2646 26.5,13.5 Z"/></g>
<g><path style="opacity:1" fill="#22261d" d="M 28.5,16.5 C 29.391,17.1098 30.391,17.4431 31.5,17.5C 32.4916,17.3284 33.1583,17.6618 33.5,18.5C 29.6266,18.334 28.9599,19.334 31.5,21.5C 30.8333,21.5 30.1667,21.5 29.5,21.5C 28.6618,21.1583 28.3284,20.4916 28.5,19.5C 28.5,18.5 28.5,17.5 28.5,16.5 Z"/></g>
<g><path style="opacity:1" fill="#090501" d="M 31.5,17.5 C 32.209,16.596 33.209,16.2627 34.5,16.5C 35.391,17.1098 36.391,17.4431 37.5,17.5C 37.5,17.8333 37.5,18.1667 37.5,18.5C 36.1667,18.5 34.8333,18.5 33.5,18.5C 33.1583,17.6618 32.4916,17.3284 31.5,17.5 Z"/></g>
<g><path style="opacity:1" fill="#0d0805" d="M 2.5,17.5 C 3.67145,18.3446 5.00478,19.0113 6.5,19.5C 6.5,22.1667 6.5,24.8333 6.5,27.5C 5.54885,26.0813 5.21552,24.4147 5.5,22.5C 4.32496,22.281 3.32496,22.6143 2.5,23.5C 3.30937,25.0709 3.64271,26.7376 3.5,28.5C 2.83333,27.5 2.16667,26.5 1.5,25.5C 1.1936,22.6146 1.52693,19.9479 2.5,17.5 Z"/></g>
<g><path style="opacity:1" fill="#d09a70" d="M 7.5,17.5 C 8.83333,17.5 10.1667,17.5 11.5,17.5C 11.3653,19.5542 12.032,21.2209 13.5,22.5C 11.8333,22.5 10.1667,22.5 8.5,22.5C 7.54885,21.0813 7.21552,19.4147 7.5,17.5 Z"/></g>
<g><path style="opacity:1" fill="#0c0d07" d="M 33.5,19.5 C 33.5,19.1667 33.5,18.8333 33.5,18.5C 34.8333,18.5 36.1667,18.5 37.5,18.5C 38.1667,18.8333 38.8333,19.1667 39.5,19.5C 40.8333,20.5 40.8333,21.5 39.5,22.5C 38.609,21.8902 37.609,21.5569 36.5,21.5C 36.0269,20.0937 35.0269,19.427 33.5,19.5 Z"/></g>
<g><path style="opacity:1" fill="#0a0603" d="M 39.5,18.5 C 40.5,18.5 41.5,18.5 42.5,18.5C 42.5,20.1667 42.5,21.8333 42.5,23.5C 41.391,23.4431 40.391,23.1098 39.5,22.5C 40.8333,21.5 40.8333,20.5 39.5,19.5C 39.5,19.1667 39.5,18.8333 39.5,18.5 Z"/></g>
<g><path style="opacity:1" fill="#3f4539" d="M 33.5,18.5 C 33.5,18.8333 33.5,19.1667 33.5,19.5C 33.5,20.8333 32.8333,21.5 31.5,21.5C 28.9599,19.334 29.6266,18.334 33.5,18.5 Z"/></g>
<g><path style="opacity:1" fill="#65604f" d="M 25.5,19.5 C 26.5,19.5 27.5,19.5 28.5,19.5C 28.3284,20.4916 28.6618,21.1583 29.5,21.5C 29.5,22.5 29.5,23.5 29.5,24.5C 28.8333,24.5 28.1667,24.5 27.5,24.5C 27.1667,24.5 26.8333,24.5 26.5,24.5C 25.8902,23.609 25.5569,22.609 25.5,21.5C 25.5,20.8333 25.5,20.1667 25.5,19.5 Z"/></g>
<g><path style="opacity:1" fill="#3c4136" d="M 33.5,19.5 C 35.0269,19.427 36.0269,20.0937 36.5,21.5C 36.5,22.5 36.5,23.5 36.5,24.5C 34.8333,23.8333 33.1667,23.1667 31.5,22.5C 31.5,22.1667 31.5,21.8333 31.5,21.5C 32.8333,21.5 33.5,20.8333 33.5,19.5 Z"/></g>
<g><path style="opacity:1" fill="#23271f" d="M 24.5,21.5 C 24.8333,21.5 25.1667,21.5 25.5,21.5C 25.5569,22.609 25.8902,23.609 26.5,24.5C 26.5,25.5 26.5,26.5 26.5,27.5C 25.8333,27.5 25.5,27.1667 25.5,26.5C 25.573,24.9731 24.9063,23.9731 23.5,23.5C 23.5,23.1667 23.5,22.8333 23.5,22.5C 24.1667,22.5 24.5,22.1667 24.5,21.5 Z"/></g>
<g><path style="opacity:1" fill="#321d20" d="M 15.5,21.5 C 16.1667,21.8333 16.8333,22.1667 17.5,22.5C 17.8333,22.5 18.1667,22.5 18.5,22.5C 18.5,23.1667 18.8333,23.5 19.5,23.5C 19.1583,24.3382 18.4916,24.6716 17.5,24.5C 17.1667,24.5 16.8333,24.5 16.5,24.5C 15.8333,24.1667 15.1667,23.8333 14.5,23.5C 14.5,23.1667 14.5,22.8333 14.5,22.5C 14.5,21.8333 14.8333,21.5 15.5,21.5 Z"/></g>
<g><path style="opacity:1" fill="#15130d" d="M 29.5,21.5 C 30.1667,21.5 30.8333,21.5 31.5,21.5C 31.5,21.8333 31.5,22.1667 31.5,22.5C 31.8333,23.1667 32.1667,23.8333 32.5,24.5C 31.8333,24.5 31.5,24.8333 31.5,25.5C 30.8333,25.1667 30.1667,24.8333 29.5,24.5C 29.5,23.5 29.5,22.5 29.5,21.5 Z"/></g>
<g><path style="opacity:1" fill="#202a21" d="M 36.5,21.5 C 37.609,21.5569 38.609,21.8902 39.5,22.5C 39.5,23.5 39.5,24.5 39.5,25.5C 38.5,25.5 37.5,25.5 36.5,25.5C 36.5,25.1667 36.5,24.8333 36.5,24.5C 36.5,23.5 36.5,22.5 36.5,21.5 Z"/></g>
<g><path style="opacity:1" fill="#191611" d="M 39.5,22.5 C 40.391,23.1098 41.391,23.4431 42.5,23.5C 42.0254,26.0821 42.6921,28.0821 44.5,29.5C 44.5,30.1667 44.8333,30.5 45.5,30.5C 45.5,30.8333 45.5,31.1667 45.5,31.5C 44.1667,31.1667 42.8333,30.8333 41.5,30.5C 41.8799,28.302 41.2132,26.6354 39.5,25.5C 39.5,24.5 39.5,23.5 39.5,22.5 Z"/></g>
<g><path style="opacity:1" fill="#422c1a" d="M 6.5,17.5 C 6.83333,17.5 7.16667,17.5 7.5,17.5C 7.21552,19.4147 7.54885,21.0813 8.5,22.5C 8.5,23.1667 8.5,23.8333 8.5,24.5C 10.354,27.8367 9.68735,28.8367 6.5,27.5C 6.5,24.8333 6.5,22.1667 6.5,19.5C 6.5,18.8333 6.5,18.1667 6.5,17.5 Z"/></g>
<g><path style="opacity:1" fill="#7e617b" d="M 8.5,22.5 C 10.1667,22.5 11.8333,22.5 13.5,22.5C 13.8333,22.5 14.1667,22.5 14.5,22.5C 14.5,22.8333 14.5,23.1667 14.5,23.5C 14.5,24.5 14.5,25.5 14.5,26.5C 13.5,26.5 12.5,26.5 11.5,26.5C 10.7095,25.5987 9.70951,24.9321 8.5,24.5C 8.5,23.8333 8.5,23.1667 8.5,22.5 Z"/></g>
<g><path style="opacity:1" fill="#432539" d="M 19.5,23.5 C 20.3764,23.3691 21.0431,23.7025 21.5,24.5C 20.8728,25.4168 20.5394,26.4168 20.5,27.5C 20.1667,27.5 19.8333,27.5 19.5,27.5C 18.8333,26.5 18.1667,25.5 17.5,24.5C 18.4916,24.6716 19.1583,24.3382 19.5,23.5 Z"/></g>
<g><path style="opacity:1" fill="#272d23" d="M 31.5,22.5 C 33.1667,23.1667 34.8333,23.8333 36.5,24.5C 36.5,24.8333 36.5,25.1667 36.5,25.5C 36.5,25.8333 36.5,26.1667 36.5,26.5C 34.9382,26.2671 33.6049,25.6005 32.5,24.5C 32.1667,23.8333 31.8333,23.1667 31.5,22.5 Z"/></g>
<g><path style="opacity:0.29" fill="#acaba9" d="M 42.5,17.5 C 43.2248,21.3953 43.8914,25.3953 44.5,29.5C 42.6921,28.0821 42.0254,26.0821 42.5,23.5C 42.5,21.8333 42.5,20.1667 42.5,18.5C 42.5,18.1667 42.5,17.8333 42.5,17.5 Z"/></g>
<g><path style="opacity:1" fill="#292021" d="M 19.5,23.5 C 19.7352,22.9033 20.2352,22.5699 21,22.5C 22.0111,23.0556 22.8444,23.7222 23.5,24.5C 22.8333,25.8333 21.8333,26.8333 20.5,27.5C 20.5394,26.4168 20.8728,25.4168 21.5,24.5C 21.0431,23.7025 20.3764,23.3691 19.5,23.5 Z"/></g>
<g><path style="opacity:1" fill="#322411" d="M 27.5,24.5 C 28.1667,24.5 28.8333,24.5 29.5,24.5C 30.1667,24.8333 30.8333,25.1667 31.5,25.5C 32.8333,27.1667 34.1667,28.8333 35.5,30.5C 32.2189,29.206 29.5523,27.206 27.5,24.5 Z"/></g>
<g><path style="opacity:1" fill="#130d06" d="M 32.5,24.5 C 33.6049,25.6005 34.9382,26.2671 36.5,26.5C 36.5,27.5 36.5,28.5 36.5,29.5C 36.5,30.1667 36.1667,30.5 35.5,30.5C 34.1667,28.8333 32.8333,27.1667 31.5,25.5C 31.5,24.8333 31.8333,24.5 32.5,24.5 Z"/></g>
<g><path style="opacity:1" fill="#21231b" d="M 6.5,27.5 C 6.83333,28.1667 7.16667,28.8333 7.5,29.5C 6.25025,29.5774 5.41691,30.244 5,31.5C 4.72158,30.5842 4.22158,29.9175 3.5,29.5C 3.5,29.1667 3.5,28.8333 3.5,28.5C 3.64271,26.7376 3.30937,25.0709 2.5,23.5C 3.32496,22.6143 4.32496,22.281 5.5,22.5C 5.21552,24.4147 5.54885,26.0813 6.5,27.5 Z"/></g>
<g><path style="opacity:1" fill="#6d5070" d="M 14.5,23.5 C 15.1667,23.8333 15.8333,24.1667 16.5,24.5C 16.33,25.8221 16.6634,26.9887 17.5,28C 16.2068,28.49 14.8734,28.6567 13.5,28.5C 12.8333,27.8333 12.1667,27.1667 11.5,26.5C 12.5,26.5 13.5,26.5 14.5,26.5C 14.5,25.5 14.5,24.5 14.5,23.5 Z"/></g>
<g><path style="opacity:1" fill="#51354e" d="M 16.5,24.5 C 16.8333,24.5 17.1667,24.5 17.5,24.5C 18.1667,25.5 18.8333,26.5 19.5,27.5C 18.6618,27.8417 18.3284,28.5084 18.5,29.5C 18.1667,29.5 17.8333,29.5 17.5,29.5C 15.901,29.7678 14.5676,29.4345 13.5,28.5C 14.8734,28.6567 16.2068,28.49 17.5,28C 16.6634,26.9887 16.33,25.8221 16.5,24.5 Z"/></g>
<g><path style="opacity:1" fill="#383b37" d="M 23.5,23.5 C 24.9063,23.9731 25.573,24.9731 25.5,26.5C 23.9731,26.427 22.9731,27.0937 22.5,28.5C 22.5,29.1667 22.5,29.8333 22.5,30.5C 20.8212,30.2852 19.8212,30.9519 19.5,32.5C 19.1667,32.5 18.8333,32.5 18.5,32.5C 18.5,31.5 18.5,30.5 18.5,29.5C 18.3284,28.5084 18.6618,27.8417 19.5,27.5C 19.8333,27.5 20.1667,27.5 20.5,27.5C 21.8333,26.8333 22.8333,25.8333 23.5,24.5C 23.5,24.1667 23.5,23.8333 23.5,23.5 Z"/></g>
<g><path style="opacity:1" fill="#4d371e" d="M 36.5,25.5 C 37.5,25.5 38.5,25.5 39.5,25.5C 41.2132,26.6354 41.8799,28.302 41.5,30.5C 40.5,30.5 39.5,30.5 38.5,30.5C 37.8333,30.1667 37.1667,29.8333 36.5,29.5C 36.5,28.5 36.5,27.5 36.5,26.5C 36.5,26.1667 36.5,25.8333 36.5,25.5 Z"/></g>
<g><path style="opacity:1" fill="#2b1d11" d="M 8.5,24.5 C 9.70951,24.9321 10.7095,25.5987 11.5,26.5C 10.5272,28.2916 11.1939,29.625 13.5,30.5C 13.5,30.8333 13.5,31.1667 13.5,31.5C 12.8333,31.5 12.1667,31.5 11.5,31.5C 10.7095,30.5987 9.70951,29.9321 8.5,29.5C 8.16667,29.5 7.83333,29.5 7.5,29.5C 7.16667,28.8333 6.83333,28.1667 6.5,27.5C 9.68735,28.8367 10.354,27.8367 8.5,24.5 Z"/></g>
<g><path style="opacity:1" fill="#363f39" d="M 25.5,26.5 C 25.5,27.1667 25.8333,27.5 26.5,27.5C 26.4142,28.4959 26.7476,29.3292 27.5,30C 26.552,30.4828 25.552,30.6495 24.5,30.5C 24.5,29.1667 23.8333,28.5 22.5,28.5C 22.9731,27.0937 23.9731,26.427 25.5,26.5 Z"/></g>
<g><path style="opacity:1" fill="#121209" d="M 26.5,24.5 C 26.8333,24.5 27.1667,24.5 27.5,24.5C 29.5523,27.206 32.2189,29.206 35.5,30.5C 34.8333,31.1667 34.1667,31.8333 33.5,32.5C 33.1667,32.5 32.8333,32.5 32.5,32.5C 31.8333,31.1667 30.8333,30.1667 29.5,29.5C 29.1667,29.5 28.8333,29.5 28.5,29.5C 28.1667,28.5 27.5,27.8333 26.5,27.5C 26.5,26.5 26.5,25.5 26.5,24.5 Z"/></g>
<g><path style="opacity:1" fill="#241617" d="M 11.5,26.5 C 12.1667,27.1667 12.8333,27.8333 13.5,28.5C 14.5676,29.4345 15.901,29.7678 17.5,29.5C 16.4324,30.4345 15.099,30.7678 13.5,30.5C 11.1939,29.625 10.5272,28.2916 11.5,26.5 Z"/></g>
<g><path style="opacity:1" fill="#2d362f" d="M 26.5,27.5 C 27.5,27.8333 28.1667,28.5 28.5,29.5C 27.5,30.8333 26.5,32.1667 25.5,33.5C 24.596,32.791 24.2627,31.791 24.5,30.5C 25.552,30.6495 26.552,30.4828 27.5,30C 26.7476,29.3292 26.4142,28.4959 26.5,27.5 Z"/></g>
<g><path style="opacity:1" fill="#080702" d="M 36.5,29.5 C 37.1667,29.8333 37.8333,30.1667 38.5,30.5C 40.2191,31.0221 41.5525,32.0221 42.5,33.5C 42.5,33.8333 42.5,34.1667 42.5,34.5C 41.8333,34.8333 41.1667,35.1667 40.5,35.5C 39.609,34.8902 38.609,34.5569 37.5,34.5C 36.713,32.8958 35.3797,32.2291 33.5,32.5C 34.1667,31.8333 34.8333,31.1667 35.5,30.5C 36.1667,30.5 36.5,30.1667 36.5,29.5 Z"/></g>
<g><path style="opacity:1" fill="#70756d" d="M 22.5,30.5 C 23.0431,30.56 23.3764,30.8933 23.5,31.5C 22.675,32.3857 21.675,32.719 20.5,32.5C 20.1667,32.5 19.8333,32.5 19.5,32.5C 19.8212,30.9519 20.8212,30.2852 22.5,30.5 Z"/></g>
<g><path style="opacity:1" fill="#28332b" d="M 28.5,29.5 C 28.8333,29.5 29.1667,29.5 29.5,29.5C 30.4054,30.9643 30.4054,32.2976 29.5,33.5C 27.8041,31.871 26.8041,32.2043 26.5,34.5C 25.8333,34.5 25.5,34.1667 25.5,33.5C 26.5,32.1667 27.5,30.8333 28.5,29.5 Z"/></g>
<g><path style="opacity:1" fill="#130d04" d="M 38.5,30.5 C 39.5,30.5 40.5,30.5 41.5,30.5C 42.8333,30.8333 44.1667,31.1667 45.5,31.5C 46.1098,32.391 46.4431,33.391 46.5,34.5C 45.2921,33.7659 43.9587,33.4326 42.5,33.5C 41.5525,32.0221 40.2191,31.0221 38.5,30.5 Z"/></g>
<g><path style="opacity:1" fill="#5f5144" d="M 3.5,29.5 C 4.22158,29.9175 4.72158,30.5842 5,31.5C 5.41691,30.244 6.25025,29.5774 7.5,29.5C 7.83333,29.5 8.16667,29.5 8.5,29.5C 7.7101,30.7942 6.7101,31.9609 5.5,33C 6.44802,33.4828 7.44802,33.6495 8.5,33.5C 7.39907,34.5983 6.06574,34.765 4.5,34C 3.74756,33.3292 3.41423,32.4959 3.5,31.5C 3.5,30.8333 3.5,30.1667 3.5,29.5 Z"/></g>
<g><path style="opacity:1" fill="#1e150c" d="M 8.5,29.5 C 9.70951,29.9321 10.7095,30.5987 11.5,31.5C 9.82124,31.2852 8.82124,31.9519 8.5,33.5C 7.44802,33.6495 6.44802,33.4828 5.5,33C 6.7101,31.9609 7.7101,30.7942 8.5,29.5 Z"/></g>
<g><path style="opacity:1" fill="#635b54" d="M 11.5,31.5 C 12.1667,31.5 12.8333,31.5 13.5,31.5C 13.5,31.8333 13.5,32.1667 13.5,32.5C 12.8843,33.2022 12.8843,34.2022 13.5,35.5C 12.1805,34.0582 10.5138,33.3915 8.5,33.5C 8.82124,31.9519 9.82124,31.2852 11.5,31.5 Z"/></g>
<g><path style="opacity:1" fill="#292926" d="M 17.5,29.5 C 17.8333,29.5 18.1667,29.5 18.5,29.5C 18.5,30.5 18.5,31.5 18.5,32.5C 17.1667,32.5 16.5,33.1667 16.5,34.5C 15.5,33.8333 14.5,33.1667 13.5,32.5C 13.5,32.1667 13.5,31.8333 13.5,31.5C 13.5,31.1667 13.5,30.8333 13.5,30.5C 15.099,30.7678 16.4324,30.4345 17.5,29.5 Z"/></g>
<g><path style="opacity:1" fill="#0e120e" d="M 13.5,32.5 C 14.5,33.1667 15.5,33.8333 16.5,34.5C 16.5,34.8333 16.5,35.1667 16.5,35.5C 15.7978,36.1157 14.7978,36.1157 13.5,35.5C 12.8843,34.2022 12.8843,33.2022 13.5,32.5 Z"/></g>
<g><path style="opacity:1" fill="#263128" d="M 29.5,33.5 C 30.5,33.5 31.5,33.5 32.5,33.5C 32.5,34.1667 32.1667,34.5 31.5,34.5C 29.8212,34.2852 28.8212,34.9519 28.5,36.5C 28.1667,36.5 27.8333,36.5 27.5,36.5C 27.1667,35.8333 26.8333,35.1667 26.5,34.5C 26.8041,32.2043 27.8041,31.871 29.5,33.5 Z"/></g>
<g><path style="opacity:1" fill="#242d24" d="M 29.5,29.5 C 30.8333,30.1667 31.8333,31.1667 32.5,32.5C 32.5,32.8333 32.5,33.1667 32.5,33.5C 31.5,33.5 30.5,33.5 29.5,33.5C 30.4054,32.2976 30.4054,30.9643 29.5,29.5 Z"/></g>
<g><path style="opacity:1" fill="#434b45" d="M 22.5,28.5 C 23.8333,28.5 24.5,29.1667 24.5,30.5C 24.2627,31.791 24.596,32.791 25.5,33.5C 25.5,34.1667 25.8333,34.5 26.5,34.5C 26.8333,35.1667 27.1667,35.8333 27.5,36.5C 27.6716,37.4916 27.3382,38.1583 26.5,38.5C 25.8333,38.1667 25.1667,37.8333 24.5,37.5C 24.0269,36.0937 23.0269,35.427 21.5,35.5C 21.4431,34.391 21.1098,33.391 20.5,32.5C 21.675,32.719 22.675,32.3857 23.5,31.5C 23.3764,30.8933 23.0431,30.56 22.5,30.5C 22.5,29.8333 22.5,29.1667 22.5,28.5 Z"/></g>
<g><path style="opacity:1" fill="#181b10" d="M 42.5,34.5 C 42.5,34.1667 42.5,33.8333 42.5,33.5C 43.9587,33.4326 45.2921,33.7659 46.5,34.5C 46.5569,35.609 46.8902,36.609 47.5,37.5C 46.8333,37.5 46.1667,37.5 45.5,37.5C 45.5,37.1667 45.5,36.8333 45.5,36.5C 45.0269,35.0937 44.0269,34.427 42.5,34.5 Z"/></g>
<g><path style="opacity:1" fill="#716e6b" d="M 45.5,30.5 C 47.5441,32.2194 49.5441,33.8861 51.5,35.5C 51.5,37.8333 51.5,40.1667 51.5,42.5C 51.1667,42.5 50.8333,42.5 50.5,42.5C 50.5,42.1667 50.5,41.8333 50.5,41.5C 50.876,38.0771 49.5426,35.7438 46.5,34.5C 46.4431,33.391 46.1098,32.391 45.5,31.5C 45.5,31.1667 45.5,30.8333 45.5,30.5 Z"/></g>
<g><path style="opacity:1" fill="#2e352f" d="M 18.5,32.5 C 18.8333,32.5 19.1667,32.5 19.5,32.5C 19.8333,32.5 20.1667,32.5 20.5,32.5C 21.1098,33.391 21.4431,34.391 21.5,35.5C 20.5041,35.5858 19.6708,35.2524 19,34.5C 18.5357,35.0944 18.369,35.7611 18.5,36.5C 17.8333,36.1667 17.1667,35.8333 16.5,35.5C 16.5,35.1667 16.5,34.8333 16.5,34.5C 16.5,33.1667 17.1667,32.5 18.5,32.5 Z"/></g>
<g><path style="opacity:1" fill="#242f27" d="M 31.5,34.5 C 31.3284,35.4916 31.6618,36.1583 32.5,36.5C 33.1228,38.7105 34.1228,40.7105 35.5,42.5C 33.2048,41.5254 31.2048,40.1921 29.5,38.5C 29.1667,37.8333 28.8333,37.1667 28.5,36.5C 28.8212,34.9519 29.8212,34.2852 31.5,34.5 Z"/></g>
<g><path style="opacity:1" fill="#1e281f" d="M 32.5,32.5 C 32.8333,32.5 33.1667,32.5 33.5,32.5C 35.3797,32.2291 36.713,32.8958 37.5,34.5C 36.8902,35.391 36.5569,36.391 36.5,37.5C 35.1667,37.1667 33.8333,36.8333 32.5,36.5C 31.6618,36.1583 31.3284,35.4916 31.5,34.5C 32.1667,34.5 32.5,34.1667 32.5,33.5C 32.5,33.1667 32.5,32.8333 32.5,32.5 Z"/></g>
<g><path style="opacity:1" fill="#1f2014" d="M 42.5,34.5 C 44.0269,34.427 45.0269,35.0937 45.5,36.5C 44.1667,36.8333 42.8333,37.1667 41.5,37.5C 41.1667,36.8333 40.8333,36.1667 40.5,35.5C 41.1667,35.1667 41.8333,34.8333 42.5,34.5 Z"/></g>
<g><path style="opacity:1" fill="#2f3731" d="M 21.5,35.5 C 23.0269,35.427 24.0269,36.0937 24.5,37.5C 23.8333,37.5 23.5,37.8333 23.5,38.5C 22.5416,38.0472 21.7083,37.3805 21,36.5C 20.5357,37.0944 20.369,37.7611 20.5,38.5C 19.5,38.1667 18.8333,37.5 18.5,36.5C 18.369,35.7611 18.5357,35.0944 19,34.5C 19.6708,35.2524 20.5041,35.5858 21.5,35.5 Z"/></g>
<g><path style="opacity:1" fill="#25281c" d="M 37.5,34.5 C 38.609,34.5569 39.609,34.8902 40.5,35.5C 40.8333,36.1667 41.1667,36.8333 41.5,37.5C 41.5,37.8333 41.5,38.1667 41.5,38.5C 40.0755,36.9689 39.4088,37.3023 39.5,39.5C 38.2223,39.2178 37.2223,38.5511 36.5,37.5C 36.5569,36.391 36.8902,35.391 37.5,34.5 Z"/></g>
<g><path style="opacity:1" fill="#2a2e2a" d="M 13.5,35.5 C 14.7978,36.1157 15.7978,36.1157 16.5,35.5C 17.1667,35.8333 17.8333,36.1667 18.5,36.5C 18.8333,37.5 19.5,38.1667 20.5,38.5C 20.5,38.8333 20.5,39.1667 20.5,39.5C 20.0623,40.5063 19.3957,40.5063 18.5,39.5C 18.0269,38.0937 17.0269,37.427 15.5,37.5C 14.5,37.1667 13.8333,36.5 13.5,35.5 Z"/></g>
<g><path style="opacity:1" fill="#1e2a22" d="M 32.5,36.5 C 33.8333,36.8333 35.1667,37.1667 36.5,37.5C 37.2223,38.5511 38.2223,39.2178 39.5,39.5C 38.8333,40.8333 37.8333,41.8333 36.5,42.5C 36.1667,42.5 35.8333,42.5 35.5,42.5C 34.1228,40.7105 33.1228,38.7105 32.5,36.5 Z"/></g>
<g><path style="opacity:1" fill="#0d0b05" d="M 46.5,34.5 C 49.5426,35.7438 50.876,38.0771 50.5,41.5C 49.0221,40.5525 48.0221,39.2191 47.5,37.5C 46.8902,36.609 46.5569,35.609 46.5,34.5 Z"/></g>
<g><path style="opacity:0.898" fill="#818180" d="M 15.5,37.5 C 17.0269,37.427 18.0269,38.0937 18.5,39.5C 18.5,40.5 18.5,41.5 18.5,42.5C 17.6923,40.7798 16.6923,39.1131 15.5,37.5 Z"/></g>
<g><path style="opacity:1" fill="#262717" d="M 45.5,36.5 C 45.5,36.8333 45.5,37.1667 45.5,37.5C 44.8333,38.1667 44.1667,38.8333 43.5,39.5C 42.8333,39.5 42.1667,39.5 41.5,39.5C 41.5,39.1667 41.5,38.8333 41.5,38.5C 41.5,38.1667 41.5,37.8333 41.5,37.5C 42.8333,37.1667 44.1667,36.8333 45.5,36.5 Z"/></g>
<g><path style="opacity:1" fill="#262e28" d="M 24.5,37.5 C 25.1667,37.8333 25.8333,38.1667 26.5,38.5C 26.5,39.1667 26.5,39.8333 26.5,40.5C 26.5,40.8333 26.5,41.1667 26.5,41.5C 26.1667,41.5 25.8333,41.5 25.5,41.5C 25.5,40.8333 25.1667,40.5 24.5,40.5C 24.1667,39.8333 23.8333,39.1667 23.5,38.5C 23.5,37.8333 23.8333,37.5 24.5,37.5 Z"/></g>
<g><path style="opacity:1" fill="#414842" d="M 27.5,36.5 C 27.8333,36.5 28.1667,36.5 28.5,36.5C 28.8333,37.1667 29.1667,37.8333 29.5,38.5C 30.625,39.6522 30.625,40.6522 29.5,41.5C 28.609,40.8902 27.609,40.5569 26.5,40.5C 26.5,39.8333 26.5,39.1667 26.5,38.5C 27.3382,38.1583 27.6716,37.4916 27.5,36.5 Z"/></g>
<g><path style="opacity:1" fill="#222b23" d="M 41.5,38.5 C 41.5,38.8333 41.5,39.1667 41.5,39.5C 40.3995,40.6049 39.7329,41.9382 39.5,43.5C 38.5,43.5 37.5,43.5 36.5,43.5C 36.5,43.1667 36.5,42.8333 36.5,42.5C 37.8333,41.8333 38.8333,40.8333 39.5,39.5C 39.4088,37.3023 40.0755,36.9689 41.5,38.5 Z"/></g>
<g><path style="opacity:1" fill="#2d342a" d="M 45.5,37.5 C 46.1667,37.5 46.8333,37.5 47.5,37.5C 47.6347,39.5542 46.968,41.2209 45.5,42.5C 44.609,41.8902 43.609,41.5569 42.5,41.5C 42.8333,40.8333 43.1667,40.1667 43.5,39.5C 44.1667,38.8333 44.8333,38.1667 45.5,37.5 Z"/></g>
<g><path style="opacity:1" fill="#3b423d" d="M 23.5,38.5 C 23.8333,39.1667 24.1667,39.8333 24.5,40.5C 24.631,41.2389 24.4643,41.9056 24,42.5C 23.5831,41.244 22.7498,40.5774 21.5,40.5C 21.5,39.8333 21.1667,39.5 20.5,39.5C 20.5,39.1667 20.5,38.8333 20.5,38.5C 20.369,37.7611 20.5357,37.0944 21,36.5C 21.7083,37.3805 22.5416,38.0472 23.5,38.5 Z"/></g>
<g><path style="opacity:1" fill="#242d24" d="M 41.5,39.5 C 42.1667,39.5 42.8333,39.5 43.5,39.5C 43.1667,40.1667 42.8333,40.8333 42.5,41.5C 42.1788,43.0481 41.1788,43.7148 39.5,43.5C 39.7329,41.9382 40.3995,40.6049 41.5,39.5 Z"/></g>
<g><path style="opacity:1" fill="#3b433c" d="M 29.5,38.5 C 31.2048,40.1921 33.2048,41.5254 35.5,42.5C 34.8166,44.1765 33.4832,44.8432 31.5,44.5C 30.8333,43.5 30.1667,42.5 29.5,41.5C 30.625,40.6522 30.625,39.6522 29.5,38.5 Z"/></g>
<g><path style="opacity:1" fill="#202821" d="M 26.5,40.5 C 27.609,40.5569 28.609,40.8902 29.5,41.5C 30.1667,42.5 30.8333,43.5 31.5,44.5C 30.1667,44.5 29.5,45.1667 29.5,46.5C 29.1667,46.5 28.8333,46.5 28.5,46.5C 28.1075,44.7162 27.4408,43.0495 26.5,41.5C 26.5,41.1667 26.5,40.8333 26.5,40.5 Z"/></g>
<g><path style="opacity:1" fill="#2d3127" d="M 42.5,41.5 C 43.609,41.5569 44.609,41.8902 45.5,42.5C 45.5,42.8333 45.5,43.1667 45.5,43.5C 45.0269,44.9063 44.0269,45.573 42.5,45.5C 41.0813,44.5489 39.4147,44.2155 37.5,44.5C 36.8333,44.5 36.5,44.1667 36.5,43.5C 37.5,43.5 38.5,43.5 39.5,43.5C 41.1788,43.7148 42.1788,43.0481 42.5,41.5 Z"/></g>
<g><path style="opacity:1" fill="#292d24" d="M 47.5,37.5 C 48.0221,39.2191 49.0221,40.5525 50.5,41.5C 50.5,41.8333 50.5,42.1667 50.5,42.5C 49.8333,42.5 49.1667,42.5 48.5,42.5C 47.609,43.1098 46.609,43.4431 45.5,43.5C 45.5,43.1667 45.5,42.8333 45.5,42.5C 46.968,41.2209 47.6347,39.5542 47.5,37.5 Z"/></g>
<g><path style="opacity:1" fill="#313831" d="M 21.5,40.5 C 22.7498,40.5774 23.5831,41.244 24,42.5C 24.4643,41.9056 24.631,41.2389 24.5,40.5C 25.1667,40.5 25.5,40.8333 25.5,41.5C 25.1788,43.0481 24.1788,43.7148 22.5,43.5C 22.4431,42.391 22.1098,41.391 21.5,40.5 Z"/></g>
<g><path style="opacity:1" fill="#2b3129" d="M 25.5,41.5 C 25.8333,41.5 26.1667,41.5 26.5,41.5C 27.4408,43.0495 28.1075,44.7162 28.5,46.5C 25.6874,46.9754 23.6874,45.9754 22.5,43.5C 24.1788,43.7148 25.1788,43.0481 25.5,41.5 Z"/></g>
<g><path style="opacity:1" fill="#33382e" d="M 35.5,42.5 C 35.8333,42.5 36.1667,42.5 36.5,42.5C 36.5,42.8333 36.5,43.1667 36.5,43.5C 36.5,44.1667 36.8333,44.5 37.5,44.5C 36.4324,45.4345 35.099,45.7678 33.5,45.5C 32.5084,45.6716 31.8417,45.3382 31.5,44.5C 33.4832,44.8432 34.8166,44.1765 35.5,42.5 Z"/></g>
<g><path style="opacity:1" fill="#1f211b" d="M 18.5,39.5 C 19.3957,40.5063 20.0623,40.5063 20.5,39.5C 21.1667,39.5 21.5,39.8333 21.5,40.5C 22.1098,41.391 22.4431,42.391 22.5,43.5C 23.6874,45.9754 25.6874,46.9754 28.5,46.5C 28.8333,46.5 29.1667,46.5 29.5,46.5C 29.5,46.8333 29.5,47.1667 29.5,47.5C 27.5,47.5 25.5,47.5 23.5,47.5C 23.1667,47.5 22.8333,47.5 22.5,47.5C 21.8333,47.5 21.5,47.1667 21.5,46.5C 21.0113,45.0048 20.3446,43.6715 19.5,42.5C 19.1667,42.5 18.8333,42.5 18.5,42.5C 18.5,41.5 18.5,40.5 18.5,39.5 Z"/></g>
<g><path style="opacity:1" fill="#303328" d="M 37.5,44.5 C 39.4147,44.2155 41.0813,44.5489 42.5,45.5C 42.5,46.1667 42.5,46.8333 42.5,47.5C 40.5,47.5 38.5,47.5 36.5,47.5C 35.8333,47.5 35.1667,47.5 34.5,47.5C 34.1667,46.8333 33.8333,46.1667 33.5,45.5C 35.099,45.7678 36.4324,45.4345 37.5,44.5 Z"/></g>
<g><path style="opacity:0.38" fill="#9c9b98" d="M 19.5,42.5 C 20.3446,43.6715 21.0113,45.0048 21.5,46.5C 19.8235,45.8166 19.1568,44.4832 19.5,42.5 Z"/></g>
<g><path style="opacity:1" fill="#0f0e07" d="M 48.5,42.5 C 48.4326,43.9587 48.7659,45.2921 49.5,46.5C 49.1667,46.5 48.8333,46.5 48.5,46.5C 46.3792,46.3253 44.3792,46.6586 42.5,47.5C 42.5,46.8333 42.5,46.1667 42.5,45.5C 44.0269,45.573 45.0269,44.9063 45.5,43.5C 46.609,43.4431 47.609,43.1098 48.5,42.5 Z"/></g>
<g><path style="opacity:1" fill="#1a1c13" d="M 31.5,44.5 C 31.8417,45.3382 32.5084,45.6716 33.5,45.5C 33.8333,46.1667 34.1667,46.8333 34.5,47.5C 32.8828,46.962 31.2161,46.6287 29.5,46.5C 29.5,45.1667 30.1667,44.5 31.5,44.5 Z"/></g>
<g><path style="opacity:1" fill="#0e0702" d="M 48.5,46.5 C 49.2653,49.0961 49.5987,51.7628 49.5,54.5C 48.8333,52.8333 48.1667,51.1667 47.5,49.5C 46.3991,48.4017 45.0657,48.235 43.5,49C 42.1991,50.6155 42.1991,52.1155 43.5,53.5C 44.9133,54.9348 46.58,55.9348 48.5,56.5C 45.9407,56.8016 43.6074,56.4682 41.5,55.5C 41.2786,52.7212 41.612,50.0545 42.5,47.5C 44.3792,46.6586 46.3792,46.3253 48.5,46.5 Z"/></g>
<g><path style="opacity:1" fill="#010000" d="M 48.5,46.5 C 48.8333,46.5 49.1667,46.5 49.5,46.5C 50.4731,48.9479 50.8064,51.6146 50.5,54.5C 50.1667,54.5 49.8333,54.5 49.5,54.5C 49.5987,51.7628 49.2653,49.0961 48.5,46.5 Z"/></g>
<g><path style="opacity:0.427" fill="#939190" d="M 48.5,42.5 C 49.1667,42.5 49.8333,42.5 50.5,42.5C 49.1854,43.8946 49.5188,44.8946 51.5,45.5C 51.5,48.8333 51.5,52.1667 51.5,55.5C 51.1667,55.5 50.8333,55.5 50.5,55.5C 50.5,55.1667 50.5,54.8333 50.5,54.5C 50.8064,51.6146 50.4731,48.9479 49.5,46.5C 48.7659,45.2921 48.4326,43.9587 48.5,42.5 Z"/></g>
<g><path style="opacity:1" fill="#181612" d="M 23.5,47.5 C 25.5,47.5 27.5,47.5 29.5,47.5C 27.5069,48.4716 27.1736,49.8049 28.5,51.5C 27.8333,51.5 27.1667,51.5 26.5,51.5C 26.5,50.5 26.5,49.5 26.5,48.5C 25.209,48.7373 24.209,48.404 23.5,47.5 Z"/></g>
<g><path style="opacity:1" fill="#070400" d="M 29.5,46.5 C 31.2161,46.6287 32.8828,46.962 34.5,47.5C 35.1667,47.5 35.8333,47.5 36.5,47.5C 37.3414,49.3792 37.6747,51.3792 37.5,53.5C 37.5,53.8333 37.5,54.1667 37.5,54.5C 37.1667,54.5 36.8333,54.5 36.5,54.5C 36.5,53.1667 36.5,51.8333 36.5,50.5C 34.2646,50.2053 32.2646,50.5386 30.5,51.5C 29.8333,52.5 29.1667,53.5 28.5,54.5C 28.5,53.5 28.5,52.5 28.5,51.5C 27.1736,49.8049 27.5069,48.4716 29.5,47.5C 29.5,47.1667 29.5,46.8333 29.5,46.5 Z"/></g>
<g><path style="opacity:0.459" fill="#a3a2a1" d="M 22.5,47.5 C 22.8333,47.5 23.1667,47.5 23.5,47.5C 24.209,48.404 25.209,48.7373 26.5,48.5C 26.5,49.5 26.5,50.5 26.5,51.5C 24.8664,50.4188 23.533,49.0855 22.5,47.5 Z"/></g>
<g><path style="opacity:1" fill="#1b1916" d="M 36.5,47.5 C 38.5,47.5 40.5,47.5 42.5,47.5C 41.612,50.0545 41.2786,52.7212 41.5,55.5C 41.1667,55.5 40.8333,55.5 40.5,55.5C 40.6505,50.3861 39.6505,49.7194 37.5,53.5C 37.6747,51.3792 37.3414,49.3792 36.5,47.5 Z"/></g>
<g><path style="opacity:1" fill="#3b2712" d="M 47.5,49.5 C 44.5,49.1667 43.1667,50.5 43.5,53.5C 42.1991,52.1155 42.1991,50.6155 43.5,49C 45.0657,48.235 46.3991,48.4017 47.5,49.5 Z"/></g>
<g><path style="opacity:1" fill="#747474" d="M 40.5,55.5 C 40.1667,55.5 39.8333,55.5 39.5,55.5C 38.8333,55.5 38.1667,55.5 37.5,55.5C 37.5,55.1667 37.5,54.8333 37.5,54.5C 37.5,54.1667 37.5,53.8333 37.5,53.5C 39.6505,49.7194 40.6505,50.3861 40.5,55.5 Z"/></g>
<g><path style="opacity:1" fill="#5d4225" d="M 47.5,49.5 C 47.8333,52.5 46.5,53.8333 43.5,53.5C 43.1667,50.5 44.5,49.1667 47.5,49.5 Z"/></g>
<g><path style="opacity:1" fill="#352415" d="M 30.5,51.5 C 32.1667,51.5 33.8333,51.5 35.5,51.5C 35.2627,52.791 35.596,53.791 36.5,54.5C 36.8333,54.5 37.1667,54.5 37.5,54.5C 37.5,54.8333 37.5,55.1667 37.5,55.5C 37.5,56.1667 37.1667,56.5 36.5,56.5C 33.7628,56.5987 31.0961,56.2653 28.5,55.5C 28.5,55.1667 28.5,54.8333 28.5,54.5C 29.1667,53.5 29.8333,52.5 30.5,51.5 Z"/></g>
<g><path style="opacity:1" fill="#3e2917" d="M 47.5,49.5 C 48.1667,51.1667 48.8333,52.8333 49.5,54.5C 49.8333,54.5 50.1667,54.5 50.5,54.5C 50.5,54.8333 50.5,55.1667 50.5,55.5C 50.5,56.1667 50.1667,56.5 49.5,56.5C 49.1667,56.5 48.8333,56.5 48.5,56.5C 46.58,55.9348 44.9133,54.9348 43.5,53.5C 46.5,53.8333 47.8333,52.5 47.5,49.5 Z"/></g>
<g><path style="opacity:0.506" fill="#838180" d="M 26.5,51.5 C 27.1667,51.5 27.8333,51.5 28.5,51.5C 28.5,52.5 28.5,53.5 28.5,54.5C 28.5,54.8333 28.5,55.1667 28.5,55.5C 27.6554,54.3285 26.9887,52.9952 26.5,51.5 Z"/></g>
<g><path style="opacity:1" fill="#1c1003" d="M 30.5,51.5 C 32.2646,50.5386 34.2646,50.2053 36.5,50.5C 36.5,51.8333 36.5,53.1667 36.5,54.5C 35.596,53.791 35.2627,52.791 35.5,51.5C 33.8333,51.5 32.1667,51.5 30.5,51.5 Z"/></g>
<g><path style="opacity:0.651" fill="#787674" d="M 28.5,55.5 C 31.0961,56.2653 33.7628,56.5987 36.5,56.5C 36.5,56.8333 36.5,57.1667 36.5,57.5C 34.1667,57.5 31.8333,57.5 29.5,57.5C 29.1667,56.8333 28.8333,56.1667 28.5,55.5 Z"/></g>
<g><path style="opacity:0.651" fill="#7d7c7b" d="M 39.5,55.5 C 39.8333,55.5 40.1667,55.5 40.5,55.5C 40.8333,55.5 41.1667,55.5 41.5,55.5C 43.6074,56.4682 45.9407,56.8016 48.5,56.5C 48.8333,56.5 49.1667,56.5 49.5,56.5C 49.5,56.8333 49.5,57.1667 49.5,57.5C 46.5,57.5 43.5,57.5 40.5,57.5C 40.1667,56.8333 39.8333,56.1667 39.5,55.5 Z"/></g>
</svg>
